<svg width="233" height="64" viewBox="0 0 233 64" fill="none" xmlns="http://www.w3.org/2000/svg">
<path d="M0.4 31.936C0.4 50.064 12.544 63.88 32.256 63.88C49.592 63.88 61.032 54.376 62.88 38.976H48.8C47.392 47.16 40.88 51.472 32.432 51.472C21.696 51.472 14.568 44.784 14.568 31.936C14.568 19.176 21.696 12.488 32.432 12.488C40.88 12.488 47.392 16.712 48.8 24.896H62.88C61.032 9.584 49.592 0.0799971 32.256 0.0799971C12.544 0.0799971 0.4 13.896 0.4 31.936ZM64.5781 31.936C64.5781 50.064 76.5461 63.88 96.2581 63.88C115.882 63.88 127.85 50.064 127.85 31.936C127.85 13.896 115.882 0.0799971 96.2581 0.0799971C76.5461 0.0799971 64.5781 13.896 64.5781 31.936ZM78.7461 31.936C78.7461 20.056 84.5541 12.488 96.2581 12.488C107.962 12.488 113.77 20.056 113.77 31.936C113.77 43.904 107.962 51.472 96.2581 51.472C84.5541 51.472 78.7461 43.904 78.7461 31.936ZM145.609 63V41.176H169.809V63H183.977V43.2C183.977 38.36 181.249 35.72 176.409 35.72H167.345V32.2C174.825 31.32 183.185 28.504 183.185 18.296C183.185 4.392 170.249 0.959996 155.465 0.959996H131.441V63H145.609ZM145.609 13.368H155.465C163.825 13.368 169.017 13.368 169.017 21.112C169.017 28.856 163.825 28.856 155.465 28.856H145.609V13.368ZM232.752 63V50.592H202.568V38.096H228.352V25.776H202.568V13.368H232.752V0.959996H188.4V63H232.752Z" fill="#F5F5F5"/>
</svg>
